# xmcd
#
# Track frame offsets: 
#        150
#        11749
#        23725
#        35569
#        45424
#        51907
#        60488
#        70886
#        83135
#        90755
#        105804
#        113898
#        127008
#        139227
#        149323
#        160670
#        169106
#        181080
#        189798
#        200748
#        208939
#        217936
#        229727
#        239762
#        249276
#        259870
#        270662
#        280608
#        291625
#        304852
#        313582
#
# Disc length: 4325 seconds
#
# Revision: 0
# Processed by: cddbd v1.5.2PL0 Copyright (c) Steve Scherf et al.
# Submitted via: ExactAudioCopy v1.1
#
DISCID=b910e31f
DTITLE=Roy Lanham and The Wippoowills - Roy Lanham and The Wippoowills_Har
DTITLE=d Life Blues
DYEAR=1900
DGENRE=Country
TTITLE0=Roy Lanham and The Whippoowills - Hard Life Blues
TTITLE1=Roy Lanham and The Whippoowills - Walking With You
TTITLE2=Roy Lanham and The Whippoowills - Why Can't That Someone Be Me
TTITLE3=Roy Lanham and The Whippoowills - Elementary Canal
TTITLE4=Roy Lanham and The Whippoowills - When My Sugar Walks Down the S
TTITLE4=treet
TTITLE5=Roy Lanham and The Whippoowills - Someone's In The Kitchen With 
TTITLE5=Dinah
TTITLE6=Roy Lanham and The Whippoowills - Section Eight
TTITLE7=Roy Lanham and The Whippoowills - I Got It Bad (And That Ain't G
TTITLE7=ood)
TTITLE8=Roy Lanham and The Whippoowills - Mandolin King Rag
TTITLE9=Roy Lanham and The Whippoowills - Now And Then
TTITLE10=Roy Lanham and The Whippoowills - Blue Mood
TTITLE11=Roy Lanham and The Whippoowills - Trouble, Trouble
TTITLE12=Roy Lanham and The Whippoowills - I Waited Too Late
TTITLE13=Roy Lanham and The Whippoowills - Lanham's Leap
TTITLE14=Roy Lanham and The Whippoowills - Tabby The Cat
TTITLE15=Roy Lanham and The Whippoowills - Arkansas Traveler
TTITLE16=Roy Lanham and The Whippoowills - I Don't Want A Second Hand Ro
TTITLE16=mance
TTITLE17=Roy Lanham and The Whippoowills - Lost Weekend
TTITLE18=Roy Lanham and The Whippoowills - Meanest Kind Of Blues
TTITLE19=Roy Lanham and The Whippoowills - (Just One Way To Say) I Love 
TTITLE19=You
TTITLE20=Roy Lanham and The Whippoowills - I Will Be True To You
TTITLE21=Roy Lanham and The Whippoowills - Picnic For Strings
TTITLE22=Roy Lanham and The Whippoowills - Carolina Moon
TTITLE23=Roy Lanham and The Whippoowills - Tweedle O'Twill
TTITLE24=Roy Lanham and The Whippoowills - I'll Never Love No One But Yo
TTITLE24=u
TTITLE25=Roy Lanham and The Whippoowills - Dimples And Cherry Cheeks
TTITLE26=Roy Lanham and The Whippoowills - Kerry Dance
TTITLE27=Roy Lanham and The Whippoowills - Peachy Pie
TTITLE28=Roy Lanham and The Whippoowills - The Good Lord Willing
TTITLE29=Roy Lanham and The Whippoowills - Stay A Little Longer
TTITLE30=Roy Lanham and The Whippoowills - Waitin' For My Gal To Come Ba
TTITLE30=ck
EXTD=
EXTT0=
EXTT1=
EXTT2=
EXTT3=
EXTT4=
EXTT5=
EXTT6=
EXTT7=
EXTT8=
EXTT9=
EXTT10=
EXTT11=
EXTT12=
EXTT13=
EXTT14=
EXTT15=
EXTT16=
EXTT17=
EXTT18=
EXTT19=
EXTT20=
EXTT21=
EXTT22=
EXTT23=
EXTT24=
EXTT25=
EXTT26=
EXTT27=
EXTT28=
EXTT29=
EXTT30=
PLAYORDER=
